<mxfile host="app.diagrams.net" modified="2022-04-14T04:57:32.453Z" agent="5.0 (Windows NT 10.0; Win64; x64) AppleWebKit/537.36 (KHTML, like Gecko) Chrome/99.0.4844.84 Safari/537.36 OPR/85.0.4341.60" etag="Ef-7wSA1FgZQ_2G5dCHf" version="17.4.4" type="github">
  <diagram id="IlLscLRvWIcH1qsZaOlD" name="Page-1">
    <mxGraphModel dx="1382" dy="795" grid="1" gridSize="10" guides="1" tooltips="1" connect="1" arrows="1" fold="1" page="1" pageScale="1" pageWidth="827" pageHeight="1169" math="0" shadow="0">
      <root>
        <mxCell id="0" />
        <mxCell id="1" parent="0" />
        <mxCell id="RGNKoZ_GBEvAxa4VT5Bt-2" value="" style="rounded=0;whiteSpace=wrap;html=1;fillColor=none;" vertex="1" parent="1">
          <mxGeometry x="100" y="150" width="600" height="60" as="geometry" />
        </mxCell>
        <mxCell id="RGNKoZ_GBEvAxa4VT5Bt-4" value="" style="rounded=0;whiteSpace=wrap;html=1;fillColor=none;" vertex="1" parent="1">
          <mxGeometry x="100" y="270" width="600" height="60" as="geometry" />
        </mxCell>
        <mxCell id="RGNKoZ_GBEvAxa4VT5Bt-14" value="" style="rounded=0;whiteSpace=wrap;html=1;fillColor=none;" vertex="1" parent="1">
          <mxGeometry x="100" y="330" width="600" height="60" as="geometry" />
        </mxCell>
        <mxCell id="RGNKoZ_GBEvAxa4VT5Bt-15" value="" style="rounded=0;whiteSpace=wrap;html=1;fillColor=none;" vertex="1" parent="1">
          <mxGeometry x="100" y="210" width="600" height="60" as="geometry" />
        </mxCell>
        <mxCell id="RGNKoZ_GBEvAxa4VT5Bt-22" value="" style="rounded=0;whiteSpace=wrap;html=1;fillColor=none;" vertex="1" parent="1">
          <mxGeometry x="100" y="150" width="120" height="240" as="geometry" />
        </mxCell>
        <mxCell id="RGNKoZ_GBEvAxa4VT5Bt-23" value="" style="rounded=0;whiteSpace=wrap;html=1;fillColor=none;" vertex="1" parent="1">
          <mxGeometry x="220" y="150" width="120" height="240" as="geometry" />
        </mxCell>
        <mxCell id="RGNKoZ_GBEvAxa4VT5Bt-24" value="" style="rounded=0;whiteSpace=wrap;html=1;fillColor=none;" vertex="1" parent="1">
          <mxGeometry x="460" y="150" width="120" height="240" as="geometry" />
        </mxCell>
        <mxCell id="RGNKoZ_GBEvAxa4VT5Bt-25" value="" style="rounded=0;whiteSpace=wrap;html=1;fillColor=none;" vertex="1" parent="1">
          <mxGeometry x="580" y="150" width="120" height="240" as="geometry" />
        </mxCell>
        <mxCell id="RGNKoZ_GBEvAxa4VT5Bt-27" value="" style="endArrow=none;html=1;rounded=0;entryX=0;entryY=0;entryDx=0;entryDy=0;" edge="1" parent="1" target="RGNKoZ_GBEvAxa4VT5Bt-22">
          <mxGeometry width="50" height="50" relative="1" as="geometry">
            <mxPoint x="220" y="210" as="sourcePoint" />
            <mxPoint x="440" y="380" as="targetPoint" />
          </mxGeometry>
        </mxCell>
        <mxCell id="RGNKoZ_GBEvAxa4VT5Bt-28" value="Visión" style="text;html=1;strokeColor=none;fillColor=none;align=center;verticalAlign=middle;whiteSpace=wrap;rounded=0;" vertex="1" parent="1">
          <mxGeometry x="160" y="153" width="60" height="30" as="geometry" />
        </mxCell>
        <mxCell id="RGNKoZ_GBEvAxa4VT5Bt-29" value="Obj.&lt;br&gt;Estratégicos" style="text;html=1;strokeColor=none;fillColor=none;align=center;verticalAlign=middle;whiteSpace=wrap;rounded=0;" vertex="1" parent="1">
          <mxGeometry x="110" y="180" width="60" height="30" as="geometry" />
        </mxCell>
        <mxCell id="RGNKoZ_GBEvAxa4VT5Bt-30" value="Desarrollar" style="text;html=1;strokeColor=none;fillColor=none;align=center;verticalAlign=middle;whiteSpace=wrap;rounded=0;" vertex="1" parent="1">
          <mxGeometry x="120" y="225" width="60" height="30" as="geometry" />
        </mxCell>
        <mxCell id="RGNKoZ_GBEvAxa4VT5Bt-31" value="Fidelizar" style="text;html=1;strokeColor=none;fillColor=none;align=center;verticalAlign=middle;whiteSpace=wrap;rounded=0;" vertex="1" parent="1">
          <mxGeometry x="120" y="285" width="60" height="30" as="geometry" />
        </mxCell>
        <mxCell id="RGNKoZ_GBEvAxa4VT5Bt-32" value="Satisfacción" style="text;html=1;strokeColor=none;fillColor=none;align=center;verticalAlign=middle;whiteSpace=wrap;rounded=0;" vertex="1" parent="1">
          <mxGeometry x="120" y="345" width="60" height="30" as="geometry" />
        </mxCell>
        <mxCell id="RGNKoZ_GBEvAxa4VT5Bt-33" value="Calidad" style="text;html=1;strokeColor=none;fillColor=none;align=center;verticalAlign=middle;whiteSpace=wrap;rounded=0;" vertex="1" parent="1">
          <mxGeometry x="250" y="165" width="60" height="30" as="geometry" />
        </mxCell>
        <mxCell id="RGNKoZ_GBEvAxa4VT5Bt-34" value="Vanguardia" style="text;html=1;strokeColor=none;fillColor=none;align=center;verticalAlign=middle;whiteSpace=wrap;rounded=0;" vertex="1" parent="1">
          <mxGeometry x="490" y="165" width="60" height="30" as="geometry" />
        </mxCell>
        <mxCell id="RGNKoZ_GBEvAxa4VT5Bt-35" value="Posicionamiento" style="text;html=1;strokeColor=none;fillColor=none;align=center;verticalAlign=middle;whiteSpace=wrap;rounded=0;" vertex="1" parent="1">
          <mxGeometry x="370" y="165" width="60" height="30" as="geometry" />
        </mxCell>
        <mxCell id="RGNKoZ_GBEvAxa4VT5Bt-36" value="Competencia" style="text;html=1;strokeColor=none;fillColor=none;align=center;verticalAlign=middle;whiteSpace=wrap;rounded=0;" vertex="1" parent="1">
          <mxGeometry x="610" y="165" width="60" height="30" as="geometry" />
        </mxCell>
        <mxCell id="RGNKoZ_GBEvAxa4VT5Bt-38" value="X" style="text;html=1;strokeColor=none;fillColor=none;align=center;verticalAlign=middle;whiteSpace=wrap;rounded=0;" vertex="1" parent="1">
          <mxGeometry x="250" y="345" width="60" height="30" as="geometry" />
        </mxCell>
        <mxCell id="RGNKoZ_GBEvAxa4VT5Bt-39" value="X" style="text;html=1;strokeColor=none;fillColor=none;align=center;verticalAlign=middle;whiteSpace=wrap;rounded=0;" vertex="1" parent="1">
          <mxGeometry x="490" y="225" width="60" height="30" as="geometry" />
        </mxCell>
        <mxCell id="RGNKoZ_GBEvAxa4VT5Bt-40" value="X" style="text;html=1;strokeColor=none;fillColor=none;align=center;verticalAlign=middle;whiteSpace=wrap;rounded=0;" vertex="1" parent="1">
          <mxGeometry x="370" y="285" width="60" height="30" as="geometry" />
        </mxCell>
        <mxCell id="RGNKoZ_GBEvAxa4VT5Bt-41" value="X" style="text;html=1;strokeColor=none;fillColor=none;align=center;verticalAlign=middle;whiteSpace=wrap;rounded=0;" vertex="1" parent="1">
          <mxGeometry x="610" y="225" width="60" height="30" as="geometry" />
        </mxCell>
      </root>
    </mxGraphModel>
  </diagram>
</mxfile>
